<svg width="554" height="135" viewBox="0 0 554 135" fill="none" xmlns="http://www.w3.org/2000/svg">
<mask id="mask0_8_150" style="mask-type:alpha" maskUnits="userSpaceOnUse" x="489" y="28" width="46" height="63">
<path d="M513.708 52.224L517.804 53.632C520.961 54.8267 523.564 56.1067 525.612 57.472C527.745 58.752 529.495 60.1173 530.86 61.568C532.055 63.104 532.908 64.768 533.42 66.56C533.932 68.2667 534.188 70.1013 534.188 72.064C534.188 75.4773 533.42 78.3787 531.884 80.768C530.433 83.072 528.513 84.992 526.124 86.528C523.735 87.9787 521.047 89.0453 518.06 89.728C515.159 90.4107 512.257 90.752 509.356 90.752C505.772 90.752 502.615 90.368 499.884 89.6C497.153 88.9173 494.423 87.8933 491.692 86.528C490.156 85.8453 489.388 84.608 489.388 82.816L489.26 74.752C489.26 72.6187 490.284 71.552 492.332 71.552H494.38C496.257 71.552 497.409 72.5333 497.836 74.496L498.86 79.872C499.116 81.5787 500.012 82.688 501.548 83.2C504.108 84.224 506.753 84.736 509.484 84.736C513.836 84.736 516.993 83.968 518.956 82.432C520.919 80.896 521.9 78.7627 521.9 76.032C521.9 73.5573 521.047 71.6373 519.34 70.272C517.633 68.8213 514.604 67.2427 510.252 65.536L504.62 63.488C499.841 61.5253 496.172 59.1787 493.612 56.448C491.052 53.7173 489.772 50.2187 489.772 45.952C489.772 42.7093 490.455 39.9787 491.82 37.76C493.185 35.5413 494.977 33.7067 497.196 32.256C499.415 30.8053 501.889 29.7813 504.62 29.184C507.351 28.5013 510.124 28.16 512.94 28.16C515.927 28.16 518.657 28.5013 521.132 29.184C523.607 29.7813 526.081 30.6773 528.556 31.872C530.177 32.64 530.945 33.92 530.86 35.712L530.476 42.88C530.391 44.928 529.324 45.952 527.276 45.952H525.356C523.393 45.952 522.241 45.0133 521.9 43.136L521.004 38.4C520.663 36.608 519.724 35.4987 518.188 35.072C516.396 34.3893 514.519 34.048 512.556 34.048C509.143 34.048 506.497 34.7733 504.62 36.224C502.828 37.6747 501.932 39.7653 501.932 42.496C501.932 44.544 502.743 46.2933 504.364 47.744C505.217 48.4267 506.412 49.152 507.948 49.92C509.569 50.688 511.489 51.456 513.708 52.224Z" fill="white"/>
</mask>
<g mask="url(#mask0_8_150)">
<path d="M513.708 52.224L517.804 53.632C520.961 54.8267 523.564 56.1067 525.612 57.472C527.745 58.752 529.495 60.1173 530.86 61.568C532.055 63.104 532.908 64.768 533.42 66.56C533.932 68.2667 534.188 70.1013 534.188 72.064C534.188 75.4773 533.42 78.3787 531.884 80.768C530.433 83.072 528.513 84.992 526.124 86.528C523.735 87.9787 521.047 89.0453 518.06 89.728C515.159 90.4107 512.257 90.752 509.356 90.752C505.772 90.752 502.615 90.368 499.884 89.6C497.153 88.9173 494.423 87.8933 491.692 86.528C490.156 85.8453 489.388 84.608 489.388 82.816L489.26 74.752C489.26 72.6187 490.284 71.552 492.332 71.552H494.38C496.257 71.552 497.409 72.5333 497.836 74.496L498.86 79.872C499.116 81.5787 500.012 82.688 501.548 83.2C504.108 84.224 506.753 84.736 509.484 84.736C513.836 84.736 516.993 83.968 518.956 82.432C520.919 80.896 521.9 78.7627 521.9 76.032C521.9 73.5573 521.047 71.6373 519.34 70.272C517.633 68.8213 514.604 67.2427 510.252 65.536L504.62 63.488C499.841 61.5253 496.172 59.1787 493.612 56.448C491.052 53.7173 489.772 50.2187 489.772 45.952C489.772 42.7093 490.455 39.9787 491.82 37.76C493.185 35.5413 494.977 33.7067 497.196 32.256C499.415 30.8053 501.889 29.7813 504.62 29.184C507.351 28.5013 510.124 28.16 512.94 28.16C515.927 28.16 518.657 28.5013 521.132 29.184C523.607 29.7813 526.081 30.6773 528.556 31.872C530.177 32.64 530.945 33.92 530.86 35.712L530.476 42.88C530.391 44.928 529.324 45.952 527.276 45.952H525.356C523.393 45.952 522.241 45.0133 521.9 43.136L521.004 38.4C520.663 36.608 519.724 35.4987 518.188 35.072C516.396 34.3893 514.519 34.048 512.556 34.048C509.143 34.048 506.497 34.7733 504.62 36.224C502.828 37.6747 501.932 39.7653 501.932 42.496C501.932 44.544 502.743 46.2933 504.364 47.744C505.217 48.4267 506.412 49.152 507.948 49.92C509.569 50.688 511.489 51.456 513.708 52.224Z" fill="#D2A679"/>
<path d="M512 15.0488L540 39.332C540 39.332 535 39.4838 533 40.332C531 41.1802 529.5 44.332 526.5 42.332C523.5 40.332 524.5 39.832 520.5 39.832C516.5 39.832 512 41.832 512 41.832C512 41.832 498.5 45.332 493.5 43.832C488.5 42.332 486.5 38.332 486.5 38.332L512 15.0488Z" fill="url(#paint0_linear_8_150)"/>
</g>
<mask id="mask1_8_150" style="mask-type:alpha" maskUnits="userSpaceOnUse" x="422" y="25" width="57" height="66">
<path d="M478.181 55.168C477.84 57.0453 476.645 57.984 474.597 57.984H437.477C437.648 65.7493 439.525 71.5947 443.109 75.52C446.693 79.4453 451.344 81.408 457.061 81.408C460.389 81.408 463.205 80.8107 465.509 79.616C467.898 78.336 470.074 76.5867 472.037 74.368C472.976 73.344 473.872 72.832 474.725 72.832C475.152 72.832 475.536 72.96 475.877 73.216C477.157 74.0693 477.328 75.3493 476.389 77.056C474.17 81.408 470.97 84.736 466.789 87.04C462.608 89.344 457.701 90.496 452.069 90.496C447.29 90.496 443.024 89.6853 439.269 88.064C435.6 86.4427 432.485 84.224 429.925 81.408C427.45 78.5067 425.573 75.0933 424.293 71.168C423.013 67.2427 422.373 62.976 422.373 58.368C422.373 53.9307 423.098 49.7067 424.549 45.696C426 41.6853 428.048 38.1867 430.693 35.2C433.424 32.128 436.666 29.7387 440.421 28.032C444.261 26.24 448.485 25.344 453.093 25.344C456.933 25.344 460.389 25.984 463.461 27.264C466.618 28.544 469.306 30.336 471.525 32.64C473.744 34.8587 475.45 37.5467 476.645 40.704C477.84 43.8613 478.437 47.36 478.437 51.2C478.437 51.8827 478.437 52.5653 478.437 53.248C478.437 53.8453 478.352 54.4853 478.181 55.168ZM437.733 52.096H456.933C460.005 52.096 462.053 51.456 463.077 50.176C464.186 48.896 464.741 47.104 464.741 44.8C464.741 40.96 463.632 37.76 461.413 35.2C459.28 32.64 456.592 31.36 453.349 31.36C450.704 31.36 448.4 32.0427 446.437 33.408C444.56 34.688 442.981 36.352 441.701 38.4C440.506 40.448 439.568 42.7093 438.885 45.184C438.288 47.5733 437.904 49.8773 437.733 52.096Z" fill="white"/>
</mask>
<g mask="url(#mask1_8_150)">
<path d="M478.181 55.168C477.84 57.0453 476.645 57.984 474.597 57.984H437.477C437.648 65.7493 439.525 71.5947 443.109 75.52C446.693 79.4453 451.344 81.408 457.061 81.408C460.389 81.408 463.205 80.8107 465.509 79.616C467.898 78.336 470.074 76.5867 472.037 74.368C472.976 73.344 473.872 72.832 474.725 72.832C475.152 72.832 475.536 72.96 475.877 73.216C477.157 74.0693 477.328 75.3493 476.389 77.056C474.17 81.408 470.97 84.736 466.789 87.04C462.608 89.344 457.701 90.496 452.069 90.496C447.29 90.496 443.024 89.6853 439.269 88.064C435.6 86.4427 432.485 84.224 429.925 81.408C427.45 78.5067 425.573 75.0933 424.293 71.168C423.013 67.2427 422.373 62.976 422.373 58.368C422.373 53.9307 423.098 49.7067 424.549 45.696C426 41.6853 428.048 38.1867 430.693 35.2C433.424 32.128 436.666 29.7387 440.421 28.032C444.261 26.24 448.485 25.344 453.093 25.344C456.933 25.344 460.389 25.984 463.461 27.264C466.618 28.544 469.306 30.336 471.525 32.64C473.744 34.8587 475.45 37.5467 476.645 40.704C477.84 43.8613 478.437 47.36 478.437 51.2C478.437 51.8827 478.437 52.5653 478.437 53.248C478.437 53.8453 478.352 54.4853 478.181 55.168ZM437.733 52.096H456.933C460.005 52.096 462.053 51.456 463.077 50.176C464.186 48.896 464.741 47.104 464.741 44.8C464.741 40.96 463.632 37.76 461.413 35.2C459.28 32.64 456.592 31.36 453.349 31.36C450.704 31.36 448.4 32.0427 446.437 33.408C444.56 34.688 442.981 36.352 441.701 38.4C440.506 40.448 439.568 42.7093 438.885 45.184C438.288 47.5733 437.904 49.8773 437.733 52.096Z" fill="#D2A679"/>
<path d="M477.5 14.332L484.5 47.332C484.5 47.332 480 42.332 476.5 44.332C473 46.332 470.5 47.332 466.5 47.0508C462.5 46.7695 440 48.832 438 48.332C437.768 48.274 437.799 48.3439 437.809 48.3598C437.812 48.3635 437.813 48.3643 437.809 48.3598C437.801 48.3492 437.766 48.3091 437.656 48.2088C437.656 48.2088 437.297 52.3904 435.797 51.3904C434.402 50.4606 434.48 46.0225 434.498 45.4037C433.735 45.007 432.9 44.8819 432 45.332C429 46.832 428.5 50.332 425.5 50.332C422.5 50.332 420.5 46.332 420.5 46.332L422 19.832L477.5 14.332Z" fill="url(#paint1_linear_8_150)"/>
</g>
<mask id="mask2_8_150" style="mask-type:alpha" maskUnits="userSpaceOnUse" x="349" y="0" width="69" height="89">
<path d="M407.922 80.128C408.775 81.4933 409.927 82.3467 411.378 82.688L414.706 83.328C416.583 83.7547 417.522 84.7787 417.522 86.4C417.522 88.0213 416.455 88.832 414.322 88.832H400.114C398.493 88.832 397.213 88.1067 396.274 86.656L379.89 59.392L372.978 66.432C372.978 68.48 372.978 70.6133 372.978 72.832C373.063 75.0507 373.106 77.2693 373.106 79.488C373.277 81.4507 374.258 82.6027 376.05 82.944L378.866 83.456C380.829 83.8827 381.81 84.864 381.81 86.4C381.81 88.0213 380.743 88.832 378.61 88.832H354.034C351.901 88.832 350.834 88.0213 350.834 86.4C350.834 84.864 351.815 83.8827 353.778 83.456L356.594 82.944C358.471 82.6027 359.41 81.4507 359.41 79.488C359.495 76.7573 359.538 73.984 359.538 71.168C359.623 68.2667 359.666 65.5787 359.666 63.104V14.208C359.666 12.2453 358.685 11.136 356.722 10.88L352.882 10.368C350.919 10.112 349.938 9.216 349.938 7.68C349.938 6.144 350.834 5.12 352.626 4.60799L369.394 0.255997C369.821 0.0853322 370.162 0 370.418 0C370.759 0 371.101 0 371.442 0C372.039 0 372.423 0.0853322 372.594 0.255997C373.106 0.597331 373.362 1.62133 373.362 3.328L372.978 18.176V58.88L391.41 40.32C392.349 39.3813 392.69 38.528 392.434 37.76C392.263 36.9067 391.581 36.3947 390.386 36.224L388.722 35.968C386.759 35.712 385.778 34.688 385.778 32.896C385.778 31.1893 386.845 30.336 388.978 30.336H410.738C412.871 30.336 413.938 31.1893 413.938 32.896C413.938 34.688 412.957 35.712 410.994 35.968L404.722 36.864C403.357 37.12 402.119 37.7173 401.01 38.656L389.49 49.92L407.922 80.128Z" fill="white"/>
</mask>
<g mask="url(#mask2_8_150)">
<path d="M407.922 80.128C408.775 81.4933 409.927 82.3467 411.378 82.688L414.706 83.328C416.583 83.7547 417.522 84.7787 417.522 86.4C417.522 88.0213 416.455 88.832 414.322 88.832H400.114C398.493 88.832 397.213 88.1067 396.274 86.656L379.89 59.392L372.978 66.432C372.978 68.48 372.978 70.6133 372.978 72.832C373.063 75.0507 373.106 77.2693 373.106 79.488C373.277 81.4507 374.258 82.6027 376.05 82.944L378.866 83.456C380.829 83.8827 381.81 84.864 381.81 86.4C381.81 88.0213 380.743 88.832 378.61 88.832H354.034C351.901 88.832 350.834 88.0213 350.834 86.4C350.834 84.864 351.815 83.8827 353.778 83.456L356.594 82.944C358.471 82.6027 359.41 81.4507 359.41 79.488C359.495 76.7573 359.538 73.984 359.538 71.168C359.623 68.2667 359.666 65.5787 359.666 63.104V14.208C359.666 12.2453 358.685 11.136 356.722 10.88L352.882 10.368C350.919 10.112 349.938 9.216 349.938 7.68C349.938 6.144 350.834 5.12 352.626 4.60799L369.394 0.255997C369.821 0.0853322 370.162 0 370.418 0C370.759 0 371.101 0 371.442 0C372.039 0 372.423 0.0853322 372.594 0.255997C373.106 0.597331 373.362 1.62133 373.362 3.328L372.978 18.176V58.88L391.41 40.32C392.349 39.3813 392.69 38.528 392.434 37.76C392.263 36.9067 391.581 36.3947 390.386 36.224L388.722 35.968C386.759 35.712 385.778 34.688 385.778 32.896C385.778 31.1893 386.845 30.336 388.978 30.336H410.738C412.871 30.336 413.938 31.1893 413.938 32.896C413.938 34.688 412.957 35.712 410.994 35.968L404.722 36.864C403.357 37.12 402.119 37.7173 401.01 38.656L389.49 49.92L407.922 80.128Z" fill="#D2A679"/>
<path d="M379.5 -9.668L382 15.832C382 15.832 375 18.832 370.5 19.332C366 19.832 368 17.332 363 17.5739C358 17.8159 351 20.332 351 20.332L336.5 -0.167999L379.5 -9.668Z" fill="url(#paint2_linear_8_150)"/>
<path d="M386.692 14.832L384 36.932C384 36.932 391.538 39.532 396.385 39.9653C401.231 40.3987 399.077 38.232 404.462 38.4417C409.846 38.6514 417.385 40.832 417.385 40.832L433 23.0653L386.692 14.832Z" fill="url(#paint3_linear_8_150)"/>
</g>
<mask id="mask3_8_150" style="mask-type:alpha" maskUnits="userSpaceOnUse" x="288" y="28" width="59" height="63">
<path d="M344.181 80.128C344.352 79.9573 344.906 80.2987 345.845 81.152C346.869 82.176 346.826 83.456 345.717 84.992C344.352 86.9547 342.858 88.2773 341.237 88.96C339.616 89.728 337.696 90.112 335.477 90.112C331.978 90.112 329.205 89.3867 327.157 87.936C325.194 86.4 323.829 84.3947 323.061 81.92C320.33 84.6507 317.685 86.8267 315.125 88.448C312.565 89.984 309.28 90.752 305.269 90.752C300.576 90.752 296.608 89.472 293.365 86.912C290.208 84.352 288.629 80.5973 288.629 75.648C288.629 72.32 289.525 69.4613 291.317 67.072C293.194 64.6827 295.498 62.6347 298.229 60.928C301.045 59.2213 304.032 57.8133 307.189 56.704C310.346 55.5947 313.29 54.656 316.021 53.888L322.549 51.968V48.64C322.549 43.008 321.696 39.168 319.989 37.12C318.368 34.9867 315.552 33.92 311.541 33.92C311.114 33.92 310.688 33.92 310.261 33.92C309.92 33.92 309.536 33.9627 309.109 34.048C307.402 34.1333 306.336 35.1573 305.909 37.12L304.757 42.368C303.733 47.488 301.173 50.048 297.077 50.048C295.37 50.048 293.92 49.536 292.725 48.512C291.53 47.4027 290.848 45.9947 290.677 44.288C291.445 39.5093 294.005 35.6267 298.357 32.64C302.794 29.6533 308.597 28.16 315.765 28.16C322.848 28.16 328.01 29.8667 331.253 33.28C334.496 36.6933 336.117 42.7093 336.117 51.328V77.056C336.117 80.896 337.312 82.816 339.701 82.816C340.725 82.816 341.664 82.5173 342.517 81.92C343.114 81.4933 343.498 81.152 343.669 80.896C343.84 80.5547 344.01 80.2987 344.181 80.128ZM322.549 76.928V57.088C320.501 57.6 318.282 58.24 315.893 59.008C313.589 59.776 311.413 60.7573 309.365 61.952C307.317 63.1467 305.61 64.64 304.245 66.432C302.88 68.1387 302.197 70.2293 302.197 72.704C302.197 75.6053 303.05 77.8667 304.757 79.488C306.549 81.1093 308.896 81.92 311.797 81.92C313.504 81.92 315.082 81.5787 316.533 80.896C318.069 80.2133 320.074 78.8907 322.549 76.928Z" fill="white"/>
</mask>
<g mask="url(#mask3_8_150)">
<path d="M344.181 80.128C344.352 79.9573 344.906 80.2987 345.845 81.152C346.869 82.176 346.826 83.456 345.717 84.992C344.352 86.9547 342.858 88.2773 341.237 88.96C339.616 89.728 337.696 90.112 335.477 90.112C331.978 90.112 329.205 89.3867 327.157 87.936C325.194 86.4 323.829 84.3947 323.061 81.92C320.33 84.6507 317.685 86.8267 315.125 88.448C312.565 89.984 309.28 90.752 305.269 90.752C300.576 90.752 296.608 89.472 293.365 86.912C290.208 84.352 288.629 80.5973 288.629 75.648C288.629 72.32 289.525 69.4613 291.317 67.072C293.194 64.6827 295.498 62.6347 298.229 60.928C301.045 59.2213 304.032 57.8133 307.189 56.704C310.346 55.5947 313.29 54.656 316.021 53.888L322.549 51.968V48.64C322.549 43.008 321.696 39.168 319.989 37.12C318.368 34.9867 315.552 33.92 311.541 33.92C311.114 33.92 310.688 33.92 310.261 33.92C309.92 33.92 309.536 33.9627 309.109 34.048C307.402 34.1333 306.336 35.1573 305.909 37.12L304.757 42.368C303.733 47.488 301.173 50.048 297.077 50.048C295.37 50.048 293.92 49.536 292.725 48.512C291.53 47.4027 290.848 45.9947 290.677 44.288C291.445 39.5093 294.005 35.6267 298.357 32.64C302.794 29.6533 308.597 28.16 315.765 28.16C322.848 28.16 328.01 29.8667 331.253 33.28C334.496 36.6933 336.117 42.7093 336.117 51.328V77.056C336.117 80.896 337.312 82.816 339.701 82.816C340.725 82.816 341.664 82.5173 342.517 81.92C343.114 81.4933 343.498 81.152 343.669 80.896C343.84 80.5547 344.01 80.2987 344.181 80.128ZM322.549 76.928V57.088C320.501 57.6 318.282 58.24 315.893 59.008C313.589 59.776 311.413 60.7573 309.365 61.952C307.317 63.1467 305.61 64.64 304.245 66.432C302.88 68.1387 302.197 70.2293 302.197 72.704C302.197 75.6053 303.05 77.8667 304.757 79.488C306.549 81.1093 308.896 81.92 311.797 81.92C313.504 81.92 315.082 81.5787 316.533 80.896C318.069 80.2133 320.074 78.8907 322.549 76.928Z" fill="#D2A679"/>
<path d="M282.227 38.9842C281.455 39.1776 278.249 42.3458 282.286 47.2954C282.537 47.604 291.167 49.0259 292.143 49.4174C292.143 49.4174 293.457 50.832 296.086 50.832C298.714 50.832 303.816 50.0688 303.816 50.0688C308.658 50.0688 305.268 50.8878 311.2 50.4783C317.132 50.0688 325 45.9328 325 45.9328C326.654 45.4358 329.88 44.3416 334.2 43.8626C333.888 44.2642 334.942 49.092 335.952 49.092C336.559 49.092 336.83 47.4219 336.951 45.9328C337.048 44.7349 337.048 43.6541 337.048 43.6541C338.262 43.611 339.512 43.6356 340.771 43.7588C340.771 43.7588 341.104 43.8932 341.652 44.0982C341.652 44.0982 345.481 51.5456 346.029 50.3856C346.555 49.2708 346.373 45.8795 346.358 45.6168C346.491 45.6505 346.553 45.6627 346.357 45.6007C348.872 46.0526 351.286 44.0071 351.286 44.0071C358.125 43.381 359.943 42.9172 361.8 41.6369L371 25.7222L279 21.832L282.227 38.9842Z" fill="url(#paint4_linear_8_150)"/>
</g>
<mask id="mask4_8_150" style="mask-type:alpha" maskUnits="userSpaceOnUse" x="226" y="28" width="54" height="63">
<path d="M274.099 75.136C275.038 73.856 275.934 73.216 276.787 73.216C277.043 73.216 277.342 73.3013 277.683 73.472C278.963 74.24 279.219 75.52 278.451 77.312C276.488 81.664 273.502 84.992 269.491 87.296C265.566 89.6 260.915 90.752 255.539 90.752C250.931 90.752 246.835 89.984 243.251 88.448C239.667 86.8267 236.638 84.6507 234.163 81.92C231.774 79.104 229.939 75.8187 228.659 72.064C227.464 68.224 226.867 64.0853 226.867 59.648C226.867 55.296 227.592 51.2 229.043 47.36C230.494 43.52 232.542 40.192 235.187 37.376C237.832 34.4747 240.99 32.2133 244.659 30.592C248.328 28.9707 252.424 28.16 256.947 28.16C259.507 28.16 262.024 28.5013 264.499 29.184C267.059 29.8667 269.363 30.9333 271.411 32.384C273.544 33.7493 275.336 35.4987 276.787 37.632C278.238 39.68 279.091 42.0693 279.347 44.8C278.75 48.2987 276.574 50.048 272.819 50.048C268.467 50.048 265.95 47.4027 265.267 42.112L264.371 37.248C264.03 35.712 263.304 34.7733 262.195 34.432C261.171 34.0907 260.019 33.92 258.739 33.92C255.582 33.92 252.894 34.688 250.675 36.224C248.456 37.6747 246.664 39.5947 245.299 41.984C243.934 44.288 242.91 46.8907 242.227 49.792C241.63 52.608 241.331 55.3387 241.331 57.984C241.331 66.0053 243.08 72.0213 246.579 76.032C250.078 80.0427 254.558 82.048 260.019 82.048C265.822 82.048 270.515 79.744 274.099 75.136Z" fill="white"/>
</mask>
<g mask="url(#mask4_8_150)">
<path d="M274.099 75.136C275.038 73.856 275.934 73.216 276.787 73.216C277.043 73.216 277.342 73.3013 277.683 73.472C278.963 74.24 279.219 75.52 278.451 77.312C276.488 81.664 273.502 84.992 269.491 87.296C265.566 89.6 260.915 90.752 255.539 90.752C250.931 90.752 246.835 89.984 243.251 88.448C239.667 86.8267 236.638 84.6507 234.163 81.92C231.774 79.104 229.939 75.8187 228.659 72.064C227.464 68.224 226.867 64.0853 226.867 59.648C226.867 55.296 227.592 51.2 229.043 47.36C230.494 43.52 232.542 40.192 235.187 37.376C237.832 34.4747 240.99 32.2133 244.659 30.592C248.328 28.9707 252.424 28.16 256.947 28.16C259.507 28.16 262.024 28.5013 264.499 29.184C267.059 29.8667 269.363 30.9333 271.411 32.384C273.544 33.7493 275.336 35.4987 276.787 37.632C278.238 39.68 279.091 42.0693 279.347 44.8C278.75 48.2987 276.574 50.048 272.819 50.048C268.467 50.048 265.95 47.4027 265.267 42.112L264.371 37.248C264.03 35.712 263.304 34.7733 262.195 34.432C261.171 34.0907 260.019 33.92 258.739 33.92C255.582 33.92 252.894 34.688 250.675 36.224C248.456 37.6747 246.664 39.5947 245.299 41.984C243.934 44.288 242.91 46.8907 242.227 49.792C241.63 52.608 241.331 55.3387 241.331 57.984C241.331 66.0053 243.08 72.0213 246.579 76.032C250.078 80.0427 254.558 82.048 260.019 82.048C265.822 82.048 270.515 79.744 274.099 75.136Z" fill="#D2A679"/>
<path d="M286.053 40.6184C286.759 40.7851 289.686 43.5163 286 47.7832C285.77 48.0492 277.891 49.275 277 49.6125C277 49.6125 275.8 50.832 273.4 50.832C271 50.832 266.342 50.1741 266.342 50.1741C261.921 50.1741 265.016 50.8801 259.6 50.5271C254.184 50.1741 247 46.2588 247 46.2588C245.976 46.298 242.695 45.2819 238.607 44.8341C238.868 45.2438 237.914 49.332 237 49.332C236.446 49.332 236.199 47.8923 236.089 46.6085C236 45.5759 236 44.6441 236 44.6441C234.892 44.607 233.75 44.6282 232.6 44.7344C232.6 44.7344 232.296 44.8503 231.796 45.027C231.796 45.027 228.3 51.4472 227.8 50.4472C227.319 49.4862 227.485 46.5626 227.499 46.3362C227.378 46.3652 227.321 46.3757 227.5 46.3222C225.204 46.7118 223 44.9484 223 44.9484C216.756 44.4087 215.095 44.0089 213.4 42.9052L205 29.1857L289 25.832L286.053 40.6184Z" fill="url(#paint5_linear_8_150)"/>
</g>
<mask id="mask5_8_150" style="mask-type:alpha" maskUnits="userSpaceOnUse" x="150" y="28" width="69" height="61">
<path d="M210.887 79.616C210.972 81.408 211.954 82.5173 213.831 82.944L216.007 83.328C217.884 83.7547 218.823 84.7787 218.823 86.4C218.823 88.0213 217.756 88.832 215.623 88.832H192.071C189.938 88.832 188.871 88.0213 188.871 86.4C188.871 84.7787 189.81 83.7973 191.687 83.456L194.247 82.944C196.124 82.5173 197.106 81.408 197.191 79.616V51.712C197.191 46.592 196.551 42.9653 195.271 40.832C194.076 38.6133 191.858 37.504 188.615 37.504C185.97 37.504 183.41 38.144 180.935 39.424C178.546 40.704 175.986 42.624 173.255 45.184V79.616C173.34 81.408 174.322 82.5173 176.199 82.944L178.503 83.456C180.38 83.7973 181.319 84.7787 181.319 86.4C181.319 88.0213 180.252 88.832 178.119 88.832H154.311C152.178 88.832 151.111 88.0213 151.111 86.4C151.111 84.864 152.092 83.8827 154.055 83.456L156.743 82.944C158.62 82.5173 159.602 81.408 159.687 79.616V56.448C159.687 54.7413 159.687 53.2053 159.687 51.84C159.687 50.4747 159.644 49.28 159.559 48.256C159.474 47.5733 159.431 46.9333 159.431 46.336C159.431 45.7387 159.431 45.0987 159.431 44.416C159.26 42.4533 158.236 41.344 156.359 41.088L153.287 40.704C151.324 40.448 150.343 39.552 150.343 38.016C150.343 36.5653 151.196 35.4987 152.903 34.816L167.751 29.056C168.519 28.7147 169.287 28.544 170.055 28.544C170.567 28.544 170.908 28.6293 171.079 28.8C171.762 29.2267 172.146 30.208 172.231 31.744L172.871 39.296C176.114 35.5413 179.399 32.768 182.727 30.976C186.055 29.0987 189.81 28.16 193.991 28.16C199.623 28.16 203.847 29.9093 206.663 33.408C209.479 36.8213 210.887 42.4533 210.887 50.304V79.616Z" fill="white"/>
</mask>
<g mask="url(#mask5_8_150)">
<path d="M210.887 79.616C210.972 81.408 211.954 82.5173 213.831 82.944L216.007 83.328C217.884 83.7547 218.823 84.7787 218.823 86.4C218.823 88.0213 217.756 88.832 215.623 88.832H192.071C189.938 88.832 188.871 88.0213 188.871 86.4C188.871 84.7787 189.81 83.7973 191.687 83.456L194.247 82.944C196.124 82.5173 197.106 81.408 197.191 79.616V51.712C197.191 46.592 196.551 42.9653 195.271 40.832C194.076 38.6133 191.858 37.504 188.615 37.504C185.97 37.504 183.41 38.144 180.935 39.424C178.546 40.704 175.986 42.624 173.255 45.184V79.616C173.34 81.408 174.322 82.5173 176.199 82.944L178.503 83.456C180.38 83.7973 181.319 84.7787 181.319 86.4C181.319 88.0213 180.252 88.832 178.119 88.832H154.311C152.178 88.832 151.111 88.0213 151.111 86.4C151.111 84.864 152.092 83.8827 154.055 83.456L156.743 82.944C158.62 82.5173 159.602 81.408 159.687 79.616V56.448C159.687 54.7413 159.687 53.2053 159.687 51.84C159.687 50.4747 159.644 49.28 159.559 48.256C159.474 47.5733 159.431 46.9333 159.431 46.336C159.431 45.7387 159.431 45.0987 159.431 44.416C159.26 42.4533 158.236 41.344 156.359 41.088L153.287 40.704C151.324 40.448 150.343 39.552 150.343 38.016C150.343 36.5653 151.196 35.4987 152.903 34.816L167.751 29.056C168.519 28.7147 169.287 28.544 170.055 28.544C170.567 28.544 170.908 28.6293 171.079 28.8C171.762 29.2267 172.146 30.208 172.231 31.744L172.871 39.296C176.114 35.5413 179.399 32.768 182.727 30.976C186.055 29.0987 189.81 28.16 193.991 28.16C199.623 28.16 203.847 29.9093 206.663 33.408C209.479 36.8213 210.887 42.4533 210.887 50.304V79.616Z" fill="#D2A679"/>
<path d="M146.666 34.3073C146.028 34.5607 143.379 38.7121 146.714 45.1979C146.922 45.6022 154.051 47.4653 154.857 47.9783C154.857 47.9783 155.943 49.832 158.114 49.832C160.286 49.832 164.5 48.832 164.5 48.832C168.5 48.832 165.7 49.9052 170.6 49.3686C175.5 48.832 182 42.8808 182 42.8808C183.352 42.9678 189.057 39.6369 195.029 40.5637C195.029 40.5637 197.2 41.954 199.371 42.8808C201.543 43.8076 203.714 40.889 203.714 40.889C209.364 40.0686 210.866 39.4609 212.4 37.7832L220 16.9296L144 11.832L146.666 34.3073Z" fill="url(#paint6_linear_8_150)"/>
</g>
<mask id="mask6_8_150" style="mask-type:alpha" maskUnits="userSpaceOnUse" x="87" y="28" width="59" height="63">
<path d="M143.306 80.128C143.477 79.9573 144.031 80.2987 144.97 81.152C145.994 82.176 145.951 83.456 144.842 84.992C143.477 86.9547 141.983 88.2773 140.362 88.96C138.741 89.728 136.821 90.112 134.602 90.112C131.103 90.112 128.33 89.3867 126.282 87.936C124.319 86.4 122.954 84.3947 122.186 81.92C119.455 84.6507 116.81 86.8267 114.25 88.448C111.69 89.984 108.405 90.752 104.394 90.752C99.7007 90.752 95.7327 89.472 92.49 86.912C89.3327 84.352 87.754 80.5973 87.754 75.648C87.754 72.32 88.65 69.4613 90.442 67.072C92.3193 64.6827 94.6233 62.6347 97.354 60.928C100.17 59.2213 103.157 57.8133 106.314 56.704C109.471 55.5947 112.415 54.656 115.146 53.888L121.674 51.968V48.64C121.674 43.008 120.821 39.168 119.114 37.12C117.493 34.9867 114.677 33.92 110.666 33.92C110.239 33.92 109.813 33.92 109.386 33.92C109.045 33.92 108.661 33.9627 108.234 34.048C106.527 34.1333 105.461 35.1573 105.034 37.12L103.882 42.368C102.858 47.488 100.298 50.048 96.202 50.048C94.4953 50.048 93.0447 49.536 91.85 48.512C90.6553 47.4027 89.9727 45.9947 89.802 44.288C90.57 39.5093 93.13 35.6267 97.482 32.64C101.919 29.6533 107.722 28.16 114.89 28.16C121.973 28.16 127.135 29.8667 130.378 33.28C133.621 36.6933 135.242 42.7093 135.242 51.328V77.056C135.242 80.896 136.437 82.816 138.826 82.816C139.85 82.816 140.789 82.5173 141.642 81.92C142.239 81.4933 142.623 81.152 142.794 80.896C142.965 80.5547 143.135 80.2987 143.306 80.128ZM121.674 76.928V57.088C119.626 57.6 117.407 58.24 115.018 59.008C112.714 59.776 110.538 60.7573 108.49 61.952C106.442 63.1467 104.735 64.64 103.37 66.432C102.005 68.1387 101.322 70.2293 101.322 72.704C101.322 75.6053 102.175 77.8667 103.882 79.488C105.674 81.1093 108.021 81.92 110.922 81.92C112.629 81.92 114.207 81.5787 115.658 80.896C117.194 80.2133 119.199 78.8907 121.674 76.928Z" fill="white"/>
</mask>
<g mask="url(#mask6_8_150)">
<path d="M143.306 80.128C143.477 79.9573 144.031 80.2987 144.97 81.152C145.994 82.176 145.951 83.456 144.842 84.992C143.477 86.9547 141.983 88.2773 140.362 88.96C138.741 89.728 136.821 90.112 134.602 90.112C131.103 90.112 128.33 89.3867 126.282 87.936C124.319 86.4 122.954 84.3947 122.186 81.92C119.455 84.6507 116.81 86.8267 114.25 88.448C111.69 89.984 108.405 90.752 104.394 90.752C99.7007 90.752 95.7327 89.472 92.49 86.912C89.3327 84.352 87.754 80.5973 87.754 75.648C87.754 72.32 88.65 69.4613 90.442 67.072C92.3193 64.6827 94.6233 62.6347 97.354 60.928C100.17 59.2213 103.157 57.8133 106.314 56.704C109.471 55.5947 112.415 54.656 115.146 53.888L121.674 51.968V48.64C121.674 43.008 120.821 39.168 119.114 37.12C117.493 34.9867 114.677 33.92 110.666 33.92C110.239 33.92 109.813 33.92 109.386 33.92C109.045 33.92 108.661 33.9627 108.234 34.048C106.527 34.1333 105.461 35.1573 105.034 37.12L103.882 42.368C102.858 47.488 100.298 50.048 96.202 50.048C94.4953 50.048 93.0447 49.536 91.85 48.512C90.6553 47.4027 89.9727 45.9947 89.802 44.288C90.57 39.5093 93.13 35.6267 97.482 32.64C101.919 29.6533 107.722 28.16 114.89 28.16C121.973 28.16 127.135 29.8667 130.378 33.28C133.621 36.6933 135.242 42.7093 135.242 51.328V77.056C135.242 80.896 136.437 82.816 138.826 82.816C139.85 82.816 140.789 82.5173 141.642 81.92C142.239 81.4933 142.623 81.152 142.794 80.896C142.965 80.5547 143.135 80.2987 143.306 80.128ZM121.674 76.928V57.088C119.626 57.6 117.407 58.24 115.018 59.008C112.714 59.776 110.538 60.7573 108.49 61.952C106.442 63.1467 104.735 64.64 103.37 66.432C102.005 68.1387 101.322 70.2293 101.322 72.704C101.322 75.6053 102.175 77.8667 103.882 79.488C105.674 81.1093 108.021 81.92 110.922 81.92C112.629 81.92 114.207 81.5787 115.658 80.896C117.194 80.2133 119.199 78.8907 121.674 76.928Z" fill="#D2A679"/>
<path d="M83.6661 37.3073C83.0278 37.5607 80.3793 41.7121 83.7143 48.1979C83.9222 48.6022 91.0507 50.4653 91.8571 50.9783C91.8571 50.9783 92.9429 52.832 95.1143 52.832C97.2857 52.832 101.5 51.832 101.5 51.832C105.5 51.832 102.7 52.9052 107.6 52.3686C112.5 51.832 119 45.8808 119 45.8808C120.352 45.9678 126.057 42.6369 132.029 43.5637C132.029 43.5637 134.2 44.954 136.371 45.8808C138.543 46.8076 140.714 43.889 140.714 43.889C146.364 43.0686 147.866 42.4609 149.4 40.7832L157 19.9296L81 14.832L83.6661 37.3073Z" fill="url(#paint7_linear_8_150)"/>
</g>
<mask id="mask7_8_150" style="mask-type:alpha" maskUnits="userSpaceOnUse" x="13" y="28" width="65" height="89">
<path d="M33.576 28.8C34.2587 29.2267 34.6427 30.208 34.728 31.744L35.112 36.736C37.8427 33.8347 40.6587 31.7013 43.56 30.336C46.5467 28.8853 49.8747 28.16 53.544 28.16C57.8107 28.16 61.4373 29.0987 64.424 30.976C67.4107 32.768 69.8427 35.1573 71.72 38.144C73.6827 41.0453 75.0907 44.3307 75.944 48C76.8827 51.6693 77.352 55.3387 77.352 59.008C77.352 62.9333 76.84 66.816 75.816 70.656C74.792 74.4107 73.2133 77.7813 71.08 80.768C68.9467 83.7547 66.2587 86.1867 63.016 88.064C59.7733 89.856 55.976 90.752 51.624 90.752C45.3093 90.752 39.9333 88.4053 35.496 83.712V90.624C35.496 93.0987 35.496 95.7867 35.496 98.688C35.5813 101.675 35.6667 104.533 35.752 107.264C35.752 109.227 36.6907 110.379 38.568 110.72L43.048 111.616C44.9253 111.957 45.864 112.939 45.864 114.56C45.864 116.181 44.7973 116.992 42.664 116.992H16.808C14.6747 116.992 13.608 116.181 13.608 114.56C13.608 112.939 14.5467 111.915 16.424 111.488L19.368 110.848C21.2453 110.421 22.184 109.269 22.184 107.392C22.2693 104.661 22.312 101.803 22.312 98.816C22.3973 95.9147 22.44 93.184 22.44 90.624V56.448C22.44 54.7413 22.44 53.2053 22.44 51.84C22.44 50.4747 22.3973 49.28 22.312 48.256C22.2267 47.5733 22.184 46.9333 22.184 46.336C22.184 45.7387 22.184 45.0987 22.184 44.416C22.0133 42.4533 20.9893 41.344 19.112 41.088L16.04 40.704C14.0773 40.448 13.096 39.552 13.096 38.016C13.096 36.5653 13.9493 35.4987 15.656 34.816L30.376 29.056C31.144 28.7147 31.8693 28.544 32.552 28.544C32.8933 28.544 33.2347 28.6293 33.576 28.8ZM35.88 41.728V77.44C39.976 80.768 43.944 82.432 47.784 82.432C52.0507 82.432 55.592 80.5973 58.408 76.928C61.3093 73.2587 62.76 67.5413 62.76 59.776C62.76 51.9253 61.48 46.08 58.92 42.24C56.4453 38.3147 53.1173 36.352 48.936 36.352C45.096 36.352 40.744 38.144 35.88 41.728Z" fill="white"/>
</mask>
<g mask="url(#mask7_8_150)">
<path d="M33.576 28.8C34.2587 29.2267 34.6427 30.208 34.728 31.744L35.112 36.736C37.8427 33.8347 40.6587 31.7013 43.56 30.336C46.5467 28.8853 49.8747 28.16 53.544 28.16C57.8107 28.16 61.4373 29.0987 64.424 30.976C67.4107 32.768 69.8427 35.1573 71.72 38.144C73.6827 41.0453 75.0907 44.3307 75.944 48C76.8827 51.6693 77.352 55.3387 77.352 59.008C77.352 62.9333 76.84 66.816 75.816 70.656C74.792 74.4107 73.2133 77.7813 71.08 80.768C68.9467 83.7547 66.2587 86.1867 63.016 88.064C59.7733 89.856 55.976 90.752 51.624 90.752C45.3093 90.752 39.9333 88.4053 35.496 83.712V90.624C35.496 93.0987 35.496 95.7867 35.496 98.688C35.5813 101.675 35.6667 104.533 35.752 107.264C35.752 109.227 36.6907 110.379 38.568 110.72L43.048 111.616C44.9253 111.957 45.864 112.939 45.864 114.56C45.864 116.181 44.7973 116.992 42.664 116.992H16.808C14.6747 116.992 13.608 116.181 13.608 114.56C13.608 112.939 14.5467 111.915 16.424 111.488L19.368 110.848C21.2453 110.421 22.184 109.269 22.184 107.392C22.2693 104.661 22.312 101.803 22.312 98.816C22.3973 95.9147 22.44 93.184 22.44 90.624V56.448C22.44 54.7413 22.44 53.2053 22.44 51.84C22.44 50.4747 22.3973 49.28 22.312 48.256C22.2267 47.5733 22.184 46.9333 22.184 46.336C22.184 45.7387 22.184 45.0987 22.184 44.416C22.0133 42.4533 20.9893 41.344 19.112 41.088L16.04 40.704C14.0773 40.448 13.096 39.552 13.096 38.016C13.096 36.5653 13.9493 35.4987 15.656 34.816L30.376 29.056C31.144 28.7147 31.8693 28.544 32.552 28.544C32.8933 28.544 33.2347 28.6293 33.576 28.8ZM35.88 41.728V77.44C39.976 80.768 43.944 82.432 47.784 82.432C52.0507 82.432 55.592 80.5973 58.408 76.928C61.3093 73.2587 62.76 67.5413 62.76 59.776C62.76 51.9253 61.48 46.08 58.92 42.24C56.4453 38.3147 53.1173 36.352 48.936 36.352C45.096 36.352 40.744 38.144 35.88 41.728Z" fill="#D2A679"/>
<path d="M75.5 -3.168L80.5 45.832C78.251 45.8876 73.5896 46.7751 71.5 46.832C71.5 46.832 66.5 47.832 65 47.332C63.5 46.832 61.5 46.332 61.5 46.332C54.5 45.832 33.5 45.832 31.5 46.332C31.5 46.332 29.8585 46.832 28.5 47.832C27.1415 48.832 22 47.832 22 47.832C18.5525 47.8124 15.4092 46.8975 11.5 46.832L1 7.332L75.5 -3.168Z" fill="url(#paint8_linear_8_150)"/>
</g>
<g filter="url(#filter0_g_8_150)">
<path d="M530.78 10.5597L527.611 32.2825L543.493 45.4887L547.171 25.1631L530.78 10.5597Z" fill="#FFE167"/>
<path d="M530.78 10.5597L527.611 32.2825L543.493 45.4887L547.171 25.1631L530.78 10.5597Z" stroke="#FFE167" stroke-width="4"/>
</g>
<g filter="url(#filter1_g_8_150)">
<path d="M22.498 94.3924L6.10359 108.999L9.7822 129.329L25.668 116.12L22.498 94.3924Z" fill="#BF6E29"/>
<path d="M22.498 94.3924L6.10359 108.999L9.7822 129.329L25.668 116.12L22.498 94.3924Z" stroke="#BF6E29" stroke-width="3"/>
</g>
<defs>
<filter id="filter0_g_8_150" x="523.47" y="4.59555" width="27.8689" height="46.6231" filterUnits="userSpaceOnUse" color-interpolation-filters="sRGB">
<feFlood flood-opacity="0" result="BackgroundImageFix"/>
<feBlend mode="normal" in="SourceGraphic" in2="BackgroundImageFix" result="shape"/>
<feTurbulence type="fractalNoise" baseFrequency="2 2" numOctaves="3" seed="9057" />
<feDisplacementMap in="shape" scale="4" xChannelSelector="R" yChannelSelector="G" result="displacedImage" width="100%" height="100%" />
<feMerge result="effect1_texture_8_150">
<feMergeNode in="displacedImage"/>
</feMerge>
</filter>
<filter id="filter1_g_8_150" x="2.47781" y="89.4193" width="26.7959" height="44.7069" filterUnits="userSpaceOnUse" color-interpolation-filters="sRGB">
<feFlood flood-opacity="0" result="BackgroundImageFix"/>
<feBlend mode="normal" in="SourceGraphic" in2="BackgroundImageFix" result="shape"/>
<feTurbulence type="fractalNoise" baseFrequency="2 2" numOctaves="3" seed="9057" />
<feDisplacementMap in="shape" scale="4" xChannelSelector="R" yChannelSelector="G" result="displacedImage" width="100%" height="100%" />
<feMerge result="effect1_texture_8_150">
<feMergeNode in="displacedImage"/>
</feMerge>
</filter>
<linearGradient id="paint0_linear_8_150" x1="513.25" y1="15.0488" x2="513" y2="42.332" gradientUnits="userSpaceOnUse">
<stop stop-color="#BF6E29"/>
<stop offset="1" stop-color="#BF6E29"/>
</linearGradient>
<linearGradient id="paint1_linear_8_150" x1="452.5" y1="14.332" x2="449.5" y2="45.832" gradientUnits="userSpaceOnUse">
<stop stop-color="#BF6E29"/>
<stop offset="1" stop-color="#BF6E29"/>
</linearGradient>
<linearGradient id="paint2_linear_8_150" x1="359.25" y1="-9.668" x2="354.627" y2="15.8702" gradientUnits="userSpaceOnUse">
<stop stop-color="#D77B2D"/>
<stop offset="1" stop-color="#BF6E29"/>
</linearGradient>
<linearGradient id="paint3_linear_8_150" x1="408.5" y1="14.832" x2="411.761" y2="37.2153" gradientUnits="userSpaceOnUse">
<stop stop-color="#D77B2D"/>
<stop offset="1" stop-color="#BF6E29"/>
</linearGradient>
<linearGradient id="paint4_linear_8_150" x1="329.6" y1="5.21005" x2="328.264" y2="44.5769" gradientUnits="userSpaceOnUse">
<stop offset="0.793295" stop-color="#D77B2D"/>
<stop offset="1" stop-color="#BF6E29"/>
</linearGradient>
<linearGradient id="paint5_linear_8_150" x1="242.8" y1="11.5027" x2="243.888" y2="45.4439" gradientUnits="userSpaceOnUse">
<stop offset="0.682717" stop-color="#D77B2D"/>
<stop offset="1" stop-color="#BF6E29"/>
</linearGradient>
<linearGradient id="paint6_linear_8_150" x1="185.8" y1="-9.94849" x2="183.028" y2="41.5459" gradientUnits="userSpaceOnUse">
<stop offset="0.793295" stop-color="#FFEB99"/>
<stop offset="1" stop-color="#FFE167"/>
</linearGradient>
<linearGradient id="paint7_linear_8_150" x1="122.8" y1="-6.94849" x2="120.028" y2="44.5459" gradientUnits="userSpaceOnUse">
<stop offset="0.793295" stop-color="#FFEB99"/>
<stop offset="1" stop-color="#FFE167"/>
</linearGradient>
<linearGradient id="paint8_linear_8_150" x1="40.75" y1="-3.168" x2="41" y2="44.832" gradientUnits="userSpaceOnUse">
<stop offset="0.79" stop-color="#FFEB99"/>
<stop offset="1" stop-color="#FFE167"/>
</linearGradient>
</defs>
</svg>
